<svg xmlns="http://www.w3.org/2000/svg" viewBox="0 0 19.64 19.64"><defs><style>.cls-1{fill:#5a5f7a;}</style></defs><title>Recurso 104</title><g id="Capa_2" data-name="Capa 2"><g id="Movil"><path class="cls-1" d="M9.82,6.87a3,3,0,1,0,2.95,3A2.95,2.95,0,0,0,9.82,6.87Zm0-2A4.91,4.91,0,1,1,4.91,9.82,4.91,4.91,0,0,1,9.82,4.91ZM15,3.44a1.23,1.23,0,1,1-1.23,1.22A1.22,1.22,0,0,1,15,3.44ZM5.5,2A3.55,3.55,0,0,0,2,5.5v8.64A3.55,3.55,0,0,0,5.5,17.68h8.64a3.55,3.55,0,0,0,3.54-3.54V5.5A3.55,3.55,0,0,0,14.14,2Zm.2-2H14a5.7,5.7,0,0,1,5.69,5.7V14A5.69,5.69,0,0,1,14,19.64H5.7A5.7,5.7,0,0,1,0,14V5.7A5.7,5.7,0,0,1,5.7,0Z"/></g></g></svg>