<svg xmlns="http://www.w3.org/2000/svg" viewBox="0 0 19.64 19.64"><defs><style>.cls-1{fill:#5a5f7a;}</style></defs><title>Recurso 102</title><g id="Capa_2" data-name="Capa 2"><g id="Movil"><path class="cls-1" d="M17.68,0H2A2,2,0,0,0,0,2V17.68a2,2,0,0,0,2,2H17.68a2,2,0,0,0,2-2V2A2,2,0,0,0,17.68,0ZM5.89,16.7H3V7.86H5.89M4.42,6.2A1.78,1.78,0,1,1,6.2,4.42,1.78,1.78,0,0,1,4.42,6.2ZM16.7,16.7H13.75V11.49a1.48,1.48,0,0,0-2.95,0V16.7H7.86V7.86H10.8V9a3.07,3.07,0,0,1,2.46-1.38A3.44,3.44,0,0,1,16.7,11.1"/></g></g></svg>