<svg xmlns="http://www.w3.org/2000/svg" viewBox="0 0 66.75 26.51"><defs><style>.cls-1{fill:#3864a9;}.cls-2{fill:#d2843b;}</style></defs><title>Recurso 129</title><g id="Capa_2" data-name="Capa 2"><g id="Movil"><path class="cls-1" d="M62.49,21.87c-.16.05-.34.09-.5.15s-.43.18-.65.28c-.63.28-1.25.58-1.89.84-.22.09-.46.16-.69.24l-.71.23c-.58.18-1.15.37-1.74.51a.51.51,0,0,1-.21,0h0a.09.09,0,0,1,0-.05.79.79,0,0,1,.18-.14,8.74,8.74,0,0,1,1.09-.58.44.44,0,0,1,.3,0l.34.05a.35.35,0,0,0,.2,0l.3-.09.47-.2.69-.34a.18.18,0,0,1,.23.06c.07.09.08.09.18.05a4.93,4.93,0,0,0,.77-.44,3,3,0,0,1,.57-.35,1.79,1.79,0,0,1,.4-.09l.64-.1Z"/><path class="cls-1" d="M66.75,19.75a1.4,1.4,0,0,1-.29.16c-.25.08-.48.21-.73.28a4.18,4.18,0,0,1-.78.17l-.17,0s0,0,0,.05a.1.1,0,0,1,0,.06l-.15.08h0l-.27-.07.18-.09a3.81,3.81,0,0,1,.71-.33A2,2,0,0,1,65.8,20a.1.1,0,0,0,.09,0l.19-.16a.2.2,0,0,1,.27,0s0,.06.07.07l.09,0,.23-.12Z"/><path class="cls-1" d="M61.42,21.18c-.1.13-.2.22-.36.19a2.45,2.45,0,0,0-.27,0Z"/><path class="cls-1" d="M60,21.6h0s-.07,0-.05.07.05,0,.09.05a.65.65,0,0,1,.2.05l-.28-.05a.8.8,0,0,0-.37,0,2.52,2.52,0,0,1-.47.13,1.05,1.05,0,0,1,.31-.12l.21,0a1.72,1.72,0,0,0,.29-.11l.07,0Z"/><path class="cls-1" d="M60,21.6a.36.36,0,0,1,.2-.08l-.2.08Z"/><path class="cls-1" d="M57.7,22.84c-.26,0-.52,0-.78-.05a1.07,1.07,0,0,0-.25,0L56,23c-.7.16-1.39.3-2.09.43l-1.31.21a.54.54,0,0,0-.32.11.24.24,0,0,1-.27.06.83.83,0,0,0-.31,0q-.39.06-.78.09l-.62.06-.76.08c-.25,0-.49.11-.74.13a.73.73,0,0,1-.36,0,.31.31,0,0,0-.16,0H46.89c-.47,0-.93,0-1.4,0-.3,0-.61,0-.91-.07-.46-.05-.91-.11-1.36-.18s-1.06-.18-1.58-.28-1-.2-1.56-.31c-.91-.19-1.82-.4-2.72-.62l-1.86-.44-1.56-.35c-.5-.1-1-.2-1.51-.28-.75-.13-1.5-.24-2.26-.35l-1.66-.2-2-.22-1.31-.12-1.22-.11c-.34,0-.69-.07-1-.09l-.94,0c-.33,0-.67,0-1,0-.66,0-1.31,0-2,0l-.63,0-.88.06-.87.06-1,.11-1.29.14-1.39.17-1.39.19-1.21.16-1.53.21a12.34,12.34,0,0,0-1.78.4,21.34,21.34,0,0,0-2.28.81c-.64.26-1.26.55-1.88.85l-1,.5a1.75,1.75,0,0,0-.35.2,4.1,4.1,0,0,0-.63.62,1.41,1.41,0,0,0-.31.65.62.62,0,0,0,.17.59,1.72,1.72,0,0,0,.4.26,1.8,1.8,0,0,0,.75.15,4.09,4.09,0,0,0,1.44-.21c.48-.16.94-.36,1.41-.52a12,12,0,0,1,1.33-.4l.71-.14-.16,0a.11.11,0,0,1-.09,0,.1.1,0,0,1,0-.09,1.32,1.32,0,0,1,.29-.19,7.34,7.34,0,0,1,1.75-.58,7.5,7.5,0,0,1,1.06-.14,4.33,4.33,0,0,1,.72,0,9.13,9.13,0,0,0,1.38.08c.34,0,.68,0,1-.05.49,0,1-.11,1.46-.19l2.09-.35c.56-.09,1.11-.19,1.67-.24.41,0,.82-.08,1.23-.1a9.79,9.79,0,0,1,1.21,0c.31,0,.61,0,.92,0h2.14l.65.06.87.06.86.06.7.05.77.05.7,0,.89.06.9.07L31,24l1.22.13,1.36.2c.58.09,1.16.19,1.73.31l1.92.41,1.74.37a14.3,14.3,0,0,0,1.72.27c.43,0,.85.05,1.27.05h.62a5.42,5.42,0,0,0,.57,0l.66,0,.44,0,.64.05.66.06.82.05c.24,0,.48,0,.71,0a8.46,8.46,0,0,0,.88-.08,18.45,18.45,0,0,0,1.83-.34l.18-.05h0l-.77.14L48,25.67c-.4,0-.8.09-1.2.11H46.6s0,0,0,0,0,0,0,0l.1-.06a6.6,6.6,0,0,1,1.21-.4.5.5,0,0,1,.32,0l.15.05a1,1,0,0,0,.52.07l.47-.09c.32-.07.62-.18.93-.28s.22-.07.35.1,0,0,.1,0l.38-.12c.27-.1.53-.25.8-.38a1.46,1.46,0,0,1,.46-.15c.22,0,.45,0,.67,0s.45,0,.67,0a2.26,2.26,0,0,0,.45-.1l1.21-.47L57.49,23s0,0,0,0,0,0,0,0l.17-.05.14-.05ZM44.54,24.07a1.56,1.56,0,0,1,1.08.18A1.8,1.8,0,0,1,44.54,24.07Zm6-.13.24-.06s0,.06,0,.09ZM57.4,23a5,5,0,0,1-1.09.21,2.9,2.9,0,0,1-.51,0h0s0,0,0,0,.05,0,.06,0,0,0-.05.05a.51.51,0,0,1-.17.07h0l-.26-.09.48-.18a2.3,2.3,0,0,1,.69-.15,1.6,1.6,0,0,1,.38,0A.11.11,0,0,0,57,23l.23-.14a.17.17,0,0,1,.21,0h0C57.51,23,57.51,23,57.4,23Z"/><path class="cls-2" d="M6.93,17.45l.34.82a2.59,2.59,0,0,1-.23.19l-.33.22-.45.18-.6.26-.42.25a.77.77,0,0,1-.23.08,1.9,1.9,0,0,0-.43.09l-.8.3-.57.2a5.61,5.61,0,0,1-.62.18L2,20.1l-.34.16H1.36l-.34,0a1.07,1.07,0,0,1-.38-.07A.19.19,0,0,1,.51,20l.05-.34-.05-.06A.77.77,0,0,1,.1,19.5c-.07-.05-.1-.18-.1-.38s0-.23,0-.44,0-.48,0-.81a.71.71,0,0,1,.06-.19.58.58,0,0,0,.06-.2.37.37,0,0,1-.05-.15.28.28,0,0,1,0-.09c0-.24,0-.52.07-.86s.09-.74.15-1.2a9.52,9.52,0,0,0,.18-.95c0-.26,0-.53,0-.8.22-1,.45-2,.68-3a1.64,1.64,0,0,1,.2-.5,3.82,3.82,0,0,1,.35-.47l.12-.09.11-.21.17-.27.18-.1.32-.2.21-.17.26-.23a6.3,6.3,0,0,0,.63-.43,1.44,1.44,0,0,1,.73-.28l.41,0,.39,0a2,2,0,0,1,.31,0l.16,0,.12,0,.15,0,.25,0H6.6a1,1,0,0,1,.53.31.77.77,0,0,1,.17.49,2.58,2.58,0,0,1-.12.91.41.41,0,0,1-.38.3.79.79,0,0,1-.45-.2A2.66,2.66,0,0,0,5,9l-.9.18A.55.55,0,0,1,4,9.3l-.11,0-.31-.12a.94.94,0,0,0-.32.3,3.78,3.78,0,0,0-.37.66.63.63,0,0,0-.07.22,1.47,1.47,0,0,0,0,.31c-.11.43-.22.84-.32,1.24s-.19.75-.25,1l-.11.4a1.36,1.36,0,0,0,0,.17.47.47,0,0,0,0,.16.3.3,0,0,0,0,.18.17.17,0,0,0,.14.06s.18-.1.38-.29a1.23,1.23,0,0,1,.46-.33l.38-.12.4-.15a2.76,2.76,0,0,1,.42-.07l1-.11.25.07L6,12.82l.25.11a1,1,0,0,1,.16.22,1.47,1.47,0,0,1,.14.28,2.34,2.34,0,0,1-.11.81.38.38,0,0,1-.35.28l-.49-.2-1.2.12-1.21.11A2.61,2.61,0,0,0,2,15a1.29,1.29,0,0,0-.44.89q0,.12-.06.36c0,.16-.08.36-.13.6l.06.27q-.08.38-.12.72a4.54,4.54,0,0,0-.05.6.21.21,0,0,0,0,.13s0,0,.06,0l.69-.05h.36l.48,0,.56-.05a2.84,2.84,0,0,0,.39-.14,1.43,1.43,0,0,1,.54-.12,2.37,2.37,0,0,0,.52-.06,2.85,2.85,0,0,0,.5-.14l.48-.18.47-.19a1.53,1.53,0,0,0,.24-.09Z"/><path class="cls-2" d="M6.88,17.45A.8.8,0,0,1,7,17.31l.14-.18.23-.21.32-.31.4-.44.56-.64L9,15.15l.51-.57a1.81,1.81,0,0,1,.54-.44,1.39,1.39,0,0,1,.6-.14.55.55,0,0,1,.47.2.92.92,0,0,1,.16.59,3.56,3.56,0,0,1-.16.78c-.1.39-.25.9-.47,1.53l-.15.34a.74.74,0,0,0-.07.21.83.83,0,0,0,0,.13.24.24,0,0,0,.06.13l.09-.07a.53.53,0,0,0,.09-.11,1.56,1.56,0,0,1,.22-.28l.35-.32a2.73,2.73,0,0,1,.21-.3,1.86,1.86,0,0,1,.29-.27.74.74,0,0,0,.09-.12l.14-.17L12.2,16l.37-.26c.16-.08.31-.14.44-.19a.85.85,0,0,1,.33-.07.9.9,0,0,1,.49.13,1.19,1.19,0,0,1,.37.42c.11.37.23.71.33,1a1.27,1.27,0,0,0,.22.41.36.36,0,0,0,.27.14.46.46,0,0,0,.21-.05.55.55,0,0,0,.18-.13l.35.82-.31.26-.31.26a1.52,1.52,0,0,1-.38.26.92.92,0,0,1-.36.07A1,1,0,0,1,14,19a.83.83,0,0,1-.32-.27,1.39,1.39,0,0,1-.18-.26c-.07-.13-.16-.29-.25-.48a2.22,2.22,0,0,1-.26-.31l-.35-.45-.08,0a1.66,1.66,0,0,0-.33.16,3.89,3.89,0,0,0-.35.28,3.39,3.39,0,0,1-.58.45.49.49,0,0,0-.24.2,3.52,3.52,0,0,1-.43.55q-.3.35-.75.81l-.24.22a2.39,2.39,0,0,1-.23.22.6.6,0,0,1-.26.14,1.12,1.12,0,0,1-.32,0c-.24,0-.37-.08-.39-.25l-.06-.49c.09-.25.19-.56.3-.94s.25-.81.39-1.31a.35.35,0,0,1,0-.12c0-.05.05-.11.08-.2a.89.89,0,0,0,.06-.2.78.78,0,0,0,0-.14.11.11,0,0,0,0-.1.18.18,0,0,0-.14,0,.49.49,0,0,0-.24.11,2.62,2.62,0,0,0-.35.34c-.16.18-.3.32-.4.42l-.2.18-.21.17A3.71,3.71,0,0,1,7.4,18l-.05.11a.66.66,0,0,1-.11.16,3.13,3.13,0,0,0-.13-.33Z"/><path class="cls-2" d="M15.4,17.45c.11-.11.28-.28.51-.49l.87-.78.27-.29.61-.71.46-.48c.17-.2.38-.43.6-.7a2.17,2.17,0,0,1,.44-.46.72.72,0,0,1,.43-.16.46.46,0,0,1,.37.13.48.48,0,0,1,.13.37,3.25,3.25,0,0,1-.05.44,3.15,3.15,0,0,0,0,.45c0,.16,0,.45-.08.87s-.13,1-.24,1.62a1.72,1.72,0,0,1,0,.21q0,.15-.09.39a1.51,1.51,0,0,0-.07.33c0,.1,0,.19,0,.26a.45.45,0,0,1,0,.11c.29-.21.55-.41.76-.59a5.5,5.5,0,0,0,.54-.52l.36.82c-.06,0-.48.4-1.25,1.1a.86.86,0,0,1-.24.34,2.7,2.7,0,0,1-.49.37q-.09.15-.21.39l-.29.58c-.06.16-.11.31-.16.46s-.08.27-.11.39a5,5,0,0,1-.31.84q-.22.5-.54,1.14a6.81,6.81,0,0,1-.7,1.16c-.21.26-.38.38-.51.38l-.35,0a.28.28,0,0,1-.16,0,.24.24,0,0,1-.11-.18,1.55,1.55,0,0,1,0-.33,2.82,2.82,0,0,1,0-.42c0-.18.07-.42.13-.69s.1-.37.17-.56.15-.36.23-.53.16-.34.25-.5l.25-.52c.2-.24.39-.5.58-.78s.37-.58.56-.9q.06-.2.12-.48t.12-.69c.05-.29.09-.55.13-.79s.05-.36.08-.48a1.36,1.36,0,0,0,0-.24l-.06-.46.16-.48a.55.55,0,0,0-.1-.17.18.18,0,0,0-.13-.06.62.62,0,0,0-.32.09,1.13,1.13,0,0,0-.28.26,3.55,3.55,0,0,1-.38.43c-.15.16-.32.32-.52.51l-.62.56c-.16.14-.27.25-.35.33,0-.08-.06-.17-.11-.28a3.85,3.85,0,0,1-.13-.37l0-.1Zm5.66-8.23a.51.51,0,0,1,.3.08.36.36,0,0,1,.09.26,2,2,0,0,1-.07.43,4.32,4.32,0,0,1-.21.55L21,11a1.14,1.14,0,0,1-.42.38,1.09,1.09,0,0,1-.53.24,2.25,2.25,0,0,1-.4,0,.57.57,0,0,1-.26-.1.49.49,0,0,1-.13-.22,1.63,1.63,0,0,1,0-.43c0-.27.24-.62.72-1A2,2,0,0,1,21.06,9.22Z"/><path class="cls-2" d="M20.76,17.45a.84.84,0,0,0,.13-.17l.16-.22.68-.47a2.83,2.83,0,0,1,.39-.39l.64-.58a1.08,1.08,0,0,1,.15-.22,1.45,1.45,0,0,1,.24-.26l.25-.22.23-.2.26-.26.24-.26a1.26,1.26,0,0,1,.29-.2.78.78,0,0,1,.33-.07.74.74,0,0,1,.3.05.16.16,0,0,1,.11.14c-.05.13-.12.27-.18.41l.05.08.62-.23.28-.07a1.19,1.19,0,0,1,1,.4,1.89,1.89,0,0,1,.32,1.2,2.36,2.36,0,0,1,0,.35q0,.21-.12.45a2.43,2.43,0,0,1-.19.45,1.15,1.15,0,0,1-.19.25.38.38,0,0,0,.08.17.16.16,0,0,0,.11.05.3.3,0,0,0,.15-.05l.18-.13.18.4c.05.14.11.28.17.42l-.31.28-.32.25a1.48,1.48,0,0,1-.39.25.92.92,0,0,1-.36.07.59.59,0,0,1-.34-.09.67.67,0,0,1-.21-.28,2.76,2.76,0,0,1-.54.54,3,3,0,0,1-.7.4,2.57,2.57,0,0,1-.41.17,1.05,1.05,0,0,1-.33.06l-.18,0a.58.58,0,0,1-.2,0,1.23,1.23,0,0,1-.92-.43,1.31,1.31,0,0,1-.41-.95,2.13,2.13,0,0,1,.1-.57,2.88,2.88,0,0,0,.09-.41.12.12,0,0,0,0-.1.12.12,0,0,0-.11,0,.53.53,0,0,0-.21.13L21.3,18l-.07.11a.66.66,0,0,1-.11.16c-.05-.14-.1-.28-.16-.42Zm4.29-1.63s-.07,0-.13.09a1.93,1.93,0,0,0-.17.21c-.08.14-.17.29-.28.45a1,1,0,0,1-.21.16.92.92,0,0,1-.25.09c-.06,0-.13.06-.19.17a2.31,2.31,0,0,0-.2.48c-.06.18-.11.34-.14.47a1.47,1.47,0,0,0,0,.33.5.5,0,0,0,.12.37.49.49,0,0,0,.38.13,1.36,1.36,0,0,0,.76-.23,2.34,2.34,0,0,0,.64-.68l.27-.32a.41.41,0,0,0,.12-.18,1.48,1.48,0,0,0,.08-.29l.17-.51a3.46,3.46,0,0,0-.16-.42.37.37,0,0,0-.14-.2l-.19,0A2.9,2.9,0,0,0,25.05,15.82Z"/><path class="cls-2" d="M27.21,17.45a4.25,4.25,0,0,1,.62-.52,5.49,5.49,0,0,0,.63-.5l.35-.38q.21-.24.51-.54a1.52,1.52,0,0,1,.35-.25.69.69,0,0,1,.34-.09.44.44,0,0,1,.33.11.42.42,0,0,1,.12.33,3.94,3.94,0,0,1-.27,1.13,4.18,4.18,0,0,0-.26,1.17A.17.17,0,0,0,30,18a.14.14,0,0,0,.09,0h.05l.39-.27c.15-.11.32-.24.51-.4l.58-.56L32.4,16a5.36,5.36,0,0,0,.4-.36l.51-.54a.85.85,0,0,1,.33-.25,1.3,1.3,0,0,1,.51-.08.53.53,0,0,1,.31.07.26.26,0,0,1,.1.23.49.49,0,0,1,0,.12.43.43,0,0,0,0,.11c-.05.18-.11.4-.19.65s-.19.57-.3.92a7.13,7.13,0,0,0-.32.79c-.11.3-.23.64-.35,1l.06.08a2.6,2.6,0,0,0,.55-.43c.25-.22.56-.52.93-.89l.36.82-.17.17a1.82,1.82,0,0,1-.28.22A13.91,13.91,0,0,0,33.19,20a7,7,0,0,0-1.08,1.32l-1,1.59-.58.87A5.59,5.59,0,0,1,29.37,25a1.83,1.83,0,0,1-1.07.39.46.46,0,0,1-.29-.08.32.32,0,0,1-.09-.25.74.74,0,0,1,0-.22.94.94,0,0,1,.16-.29c.11-.16.21-.32.31-.5l.26-.23a.45.45,0,0,0,0-.16l.1-.1.16-.15a3.1,3.1,0,0,1,.33-.53c.18-.24.44-.56.76-.95l.67-.76c.2-.22.37-.41.52-.56s0-.11.07-.17a1.59,1.59,0,0,0,.07-.2c.08-.15.16-.34.25-.56l.34-.78a3.89,3.89,0,0,0,.15-.59q.06-.33.12-.72a.29.29,0,0,1,0-.1.41.41,0,0,0,0-.16,1.83,1.83,0,0,0-.35.24c-.13.1-.26.23-.41.37a4.17,4.17,0,0,1-.6.64,2.55,2.55,0,0,1-.6.39,1.27,1.27,0,0,1-1.21.74.63.63,0,0,1-.44-.13.54.54,0,0,1-.16-.43.83.83,0,0,1,0-.13c0-.05,0-.12,0-.19a1.37,1.37,0,0,1-.09-.25c0-.1,0-.21.06-.34a1.4,1.4,0,0,0,0-.4c0-.09-.07-.13-.13-.13l0,0-.28.21-.43.35L27.45,18l-.14-.37a.3.3,0,0,0,0-.1Z"/><path class="cls-1" d="M46.31,18.27c-.18.14-.4.29-.67.47s-.57.38-.93.59l-.85.48a4.59,4.59,0,0,1-.62.29,2.89,2.89,0,0,1-.77.25,4.69,4.69,0,0,1-.84.08,1.77,1.77,0,0,1-.3,0l-.35-.1-.39-.1-.27-.06L40.21,20,40,20a.86.86,0,0,1-.4-.17,3.29,3.29,0,0,1-.51-.45,3.22,3.22,0,0,1-.44-.5,2.69,2.69,0,0,1-.23-.44l-.24-.77c-.08-.26-.15-.47-.19-.63a1,1,0,0,1,0-.31l.1-.4L37.87,16a1.23,1.23,0,0,1,0-.21s0-.19.05-.43.07-.58.12-1a2.15,2.15,0,0,0,.14-.3c0-.12.09-.25.13-.4l0-.2a.34.34,0,0,1,0-.16.9.9,0,0,1,.08-.21c.14-.29.27-.59.41-.88s.27-.59.41-.87a4.69,4.69,0,0,1,.46-.66c.19-.22.4-.46.64-.7l.2-.23.28-.32a3.63,3.63,0,0,0,.37-.27l.52-.47.21-.09.3-.16.12-.08a1,1,0,0,1,.15-.14,2.79,2.79,0,0,1,.72-.27,4,4,0,0,1,.8-.17,4.44,4.44,0,0,1,.69,0A1.14,1.14,0,0,1,45.1,8l.28,0a.78.78,0,0,1,.53.54,4.19,4.19,0,0,1,.17,1.34c0,.27,0,.49,0,.66s0,.27,0,.33-.07.4-.12.67-.1.59-.17.94a2.65,2.65,0,0,1-.12.47c-.08.22-.17.49-.29.81s-.23.61-.32.79-.16.29-.22.3l-.77.2a.82.82,0,0,1-.27,0,.1.1,0,0,1-.08-.1,1,1,0,0,1,0-.2,1,1,0,0,0,0-.19l-.06-.68a3.09,3.09,0,0,1,.08-.49c0-.25.11-.56.21-.94s.19-.74.27-1a1.51,1.51,0,0,1,.18-.45,2.09,2.09,0,0,0,.38-.46.86.86,0,0,0,.12-.4.81.81,0,0,0-.12-.44.74.74,0,0,0-.36-.28L44,9.34l-.47-.12a3,3,0,0,1-.33.1l-.26.07a2.28,2.28,0,0,0-1.14.55,5,5,0,0,0-1.05,1.25,8.84,8.84,0,0,0-.66,1.4,7,7,0,0,0-.34,1.4c0,.14,0,.32-.09.53s-.08.46-.15.75.1.34.15.49l-.09.81a.39.39,0,0,0,.08.18c.05.09.13.23.25.41a2.28,2.28,0,0,1,.17.35,2,2,0,0,1,.13.47.33.33,0,0,0,.07.13.38.38,0,0,0,.11.11,2.39,2.39,0,0,0,.26.21,2.74,2.74,0,0,0,.81.62,2.1,2.1,0,0,0,.92.21l.34-.05c.19,0,.46-.07.79-.14a1.33,1.33,0,0,1,.24-.12c.1-.05.22-.09.35-.14a1.12,1.12,0,0,1,.36-.25.88.88,0,0,1,.33-.08l.11-.15a1.37,1.37,0,0,1,.17-.19,2,2,0,0,0,.49-.29,2.69,2.69,0,0,0,.43-.4C46.19,18,46.31,18.24,46.31,18.27Z"/><path class="cls-1" d="M45.94,17.45a.17.17,0,0,0,.06-.06.15.15,0,0,0,0-.09,3.82,3.82,0,0,0,.35-.35c.12-.14.27-.31.43-.51l.4-.53q.21-.27.45-.54l.39-.55a5.89,5.89,0,0,1,.41-.57L49,14a.87.87,0,0,1,.27-.07.26.26,0,0,1,.2.08.37.37,0,0,1,.07.25s0,.08,0,.15a1.72,1.72,0,0,1-.07.21c0,.12-.09.24-.14.37s-.1.41-.17.62S49,16,49,16.24s-.11.49-.14.7a3.2,3.2,0,0,0,0,.59,3.48,3.48,0,0,0,0,.74c0,.16.08.23.14.21l.22-.13.31-.17a4.25,4.25,0,0,0,.36-.42c.13-.17.3-.36.49-.59s.21-.33.33-.49l.14-.17c.06-.06.11-.13.16-.19a1.8,1.8,0,0,1,.38-.64.64.64,0,0,1,.47-.21,1,1,0,0,1,.37.06.4.4,0,0,1,.19.17,1.49,1.49,0,0,1,0,.22,3.9,3.9,0,0,1,0,.4,1.23,1.23,0,0,0,0,.28,1.3,1.3,0,0,1,0,.28.82.82,0,0,0,.12.49.39.39,0,0,0,.35.17l.17,0,.2-.06.35.82c-.35.21-.65.37-.87.48a1.38,1.38,0,0,1-.52.17,1.16,1.16,0,0,1-.73-.23,1.4,1.4,0,0,1-.42-.69.58.58,0,0,0-.07-.21,2.17,2.17,0,0,0-.15-.22l-.18.22-.22.25-.48.57c-.16.19-.32.38-.49.56a2.28,2.28,0,0,1-.63.53,1.28,1.28,0,0,1-.59.16.89.89,0,0,1-.66-.24,1.24,1.24,0,0,1-.32-.73c-.06-.31-.09-.55-.11-.72a1.12,1.12,0,0,1,0-.31,2.51,2.51,0,0,0,0-.39c0-.09-.05-.14-.09-.14l0,0-.51.53-.09.15-.17.23a1.84,1.84,0,0,0-.13-.33C46.12,17.81,46,17.65,45.94,17.45Z"/><path class="cls-1" d="M53.36,17.45l.26-.3c.1-.12.22-.26.38-.43a4.58,4.58,0,0,0,.16-.62,8.13,8.13,0,0,0,.13-.87c0-.34.09-.63.14-.89s.1-.45.14-.61c.27-.83.47-1.48.62-1.94s.24-.74.26-.82a13.43,13.43,0,0,1,.62-1.45,10.86,10.86,0,0,1,.66-1.11c.05-.06.11-.12.16-.19L57.1,8l.61-.29L58,7.59a1.22,1.22,0,0,1,.32,0,.43.43,0,0,1,.39.24,1.43,1.43,0,0,1,.13.7,2.69,2.69,0,0,1-.08.66c0,.24-.13.5-.22.79l-.33,1c-.08.24-.13.39-.14.45a2.34,2.34,0,0,1-.17.48q-.13.28-.36.69c-.18.35-.33.62-.43.81a3.16,3.16,0,0,0-.18.34l-.13.13-.14.14v.2a.39.39,0,0,1-.09.15c-.1.2-.24.44-.41.74s-.37.62-.62,1a2.94,2.94,0,0,0-.32.52.83.83,0,0,0-.11.38v.79c0,.15.06.31.1.46s.07.3.1.44a.9.9,0,0,0,.17.43.38.38,0,0,0,.29.15A.94.94,0,0,0,56.4,19a1,1,0,0,0,.35-.53,1.17,1.17,0,0,1-.37-.22.43.43,0,0,1-.13-.28,1.08,1.08,0,0,0,.08-.19,1.87,1.87,0,0,1,.07-.22.28.28,0,0,1,0-.13,1.57,1.57,0,0,0,0-.16,6.09,6.09,0,0,1,.75-1.13.9.9,0,0,1,.6-.38l.21,0,.21,0,.17,0,.17,0a.22.22,0,0,1,.21.1.47.47,0,0,1,.07.28,1.9,1.9,0,0,1-.23.83,2.26,2.26,0,0,0-.22.51.16.16,0,0,0,.07.11l.11-.05a.48.48,0,0,0,.11-.09,2.86,2.86,0,0,0,.12.27l.16.34a.45.45,0,0,1,.06.12.15.15,0,0,1,0,.09,6.16,6.16,0,0,1-.66.59,1.1,1.1,0,0,1-.48.22h-.15l-.21,0-.3.35c-.12.13-.25.28-.39.46l-.22.17-.31.25a1.87,1.87,0,0,1-.51.38,1.19,1.19,0,0,1-.51.12.91.91,0,0,1-.23,0,.93.93,0,0,1-.25-.12l-.23-.15a2.35,2.35,0,0,1-.26-.22,6.45,6.45,0,0,1-.26-1,5.64,5.64,0,0,1-.08-.88c0-.05,0-.09,0-.13l0-.08-.09,0-.06,0-.09.09a3.33,3.33,0,0,0-.16-.4C53.49,17.73,53.43,17.59,53.36,17.45Zm4.12-7.25a.17.17,0,0,0,0-.07l0-.06s-.08,0-.12.12a1.51,1.51,0,0,0-.14.37A1.6,1.6,0,0,1,57,11c-.08.16-.19.35-.32.57s-.22.4-.33.64-.21.49-.32.76a5.17,5.17,0,0,0-.3.85,2.19,2.19,0,0,0-.1.58l0,.08a1.17,1.17,0,0,0,.23-.34c.11-.21.26-.51.44-.9s.29-.62.37-.81a4.1,4.1,0,0,0,.14-.4c.05-.16.11-.34.17-.56s.14-.45.22-.71c.06-.1.11-.19.16-.26a1,1,0,0,0,.08-.14A.68.68,0,0,0,57.48,10.2Z"/><path class="cls-1" d="M59,17.06l.81-.54.11-.12a1.21,1.21,0,0,0,.14-.22A.61.61,0,0,1,60.2,16a.74.74,0,0,1,.23-.14l.21-.23.34-.31.25-.16a1.78,1.78,0,0,0,.33-.27A9.81,9.81,0,0,1,63,13.73a2.08,2.08,0,0,1,1-.38.49.49,0,0,1,.34.1.35.35,0,0,1,.11.27.67.67,0,0,1-.07.33.49.49,0,0,1-.21.24l-.48.36a3.82,3.82,0,0,1-.34.4,3.43,3.43,0,0,1-.49.41l-.15.21-.17.16c-.08.07-.19.16-.33.26a2.12,2.12,0,0,1-.38.51c-.2.21-.47.46-.8.75a2.21,2.21,0,0,0-.22.29l-.42.58.06.08a1.45,1.45,0,0,0,.41-.21,3.73,3.73,0,0,0,.47-.4l.5-.45a1.83,1.83,0,0,1,.27-.23l.12-.07.14-.09a3.8,3.8,0,0,1,.77-.72,1.22,1.22,0,0,1,.66-.24.33.33,0,0,1,.29.15.94.94,0,0,1,.11.44c0,.3,0,.58,0,.85a.89.89,0,0,0,.16.52.5.5,0,0,0,.43.22.29.29,0,0,0,.16,0,.87.87,0,0,0,.27-.27l.12-.14.11-.06.13-.11.21.47a2.44,2.44,0,0,1,.12.35c-.13.12-.27.25-.4.39s-.28.26-.42.38a2.56,2.56,0,0,1-.52.3,1.29,1.29,0,0,1-.5.11,1.16,1.16,0,0,1-.89-.33,1.64,1.64,0,0,1-.37-1,.5.5,0,0,0,0-.17.4.4,0,0,0-.09-.17l-.1.09-.12.13-.29.22-.41.33-.53.52-.3.3a4.85,4.85,0,0,1-.41.3L60,20l-.32.16a.8.8,0,0,1-.2.05.83.83,0,0,1-.63-.21.87.87,0,0,1-.21-.64,1.23,1.23,0,0,1,.1-.46,1.52,1.52,0,0,1,.31-.42,1.76,1.76,0,0,0,0-.19.29.29,0,0,0,0-.09L59,18.06l-.12-.28c0-.1-.09-.21-.15-.33a.46.46,0,0,0,.1-.14Z"/><path class="cls-2" d="M33.32,4.61s-.26.7,0,.73.16.29.16.29a1.76,1.76,0,0,0,.25.37,1.85,1.85,0,0,1,.41.62,3.28,3.28,0,0,1,.32.87,2.08,2.08,0,0,0,.3.82,2.55,2.55,0,0,1,.41,1.1,3.68,3.68,0,0,0,.25,1.37,4.8,4.8,0,0,1,.13,1.36v1.79a9.4,9.4,0,0,1,0,1.07c0,.4-.5,1.13-.51,1.38a5.59,5.59,0,0,1-.76,1.25l-.47.58-.61.73.23.48,1-.8s.61-.28.82-.35a4,4,0,0,0,.84-1.5,4.86,4.86,0,0,0,.39-1.45c0-.43.33-.87.33-1.24a6.47,6.47,0,0,0,0-1.46,10.65,10.65,0,0,1-.14-1.28c-.07-.55-.21-.81-.21-1.14s-.16-.58-.16-.84a3.57,3.57,0,0,0-.37-1,6.75,6.75,0,0,0-.29-.83c-.15-.23-.25-.49-.46-.91a6.31,6.31,0,0,0-.46-.71,4.72,4.72,0,0,0-.44-.69c-.18-.23-.58-.63-.58-.63Z"/><path class="cls-2" d="M33.87,4.13a3.66,3.66,0,0,1,1.59-1.44,2.74,2.74,0,0,1,2.64.16,6,6,0,0,1,1.46,1.39A3.66,3.66,0,0,1,40,5.46s-.11.2-.18.16-.27-.46-.43-.51S39,4.69,39,4.69v-.6l-.13.52-.51-.24c-.14-.06-.48-.81-.48-.81l.2.76A2.81,2.81,0,0,0,37.39,4c-.14,0-.6-.08-.6-.08l-.17-.77V4h-.89L35.5,3.4l0,.74H34.4a.53.53,0,0,1-.26,0A.46.46,0,0,1,33.87,4.13Z"/><path class="cls-2" d="M32.84,4.55a4.54,4.54,0,0,0-2.29.78,3,3,0,0,0-1.2,2.84,5,5,0,0,0,1.28,2.25s0-1.18,0-1.55,0-.48,0-.48L29.75,8l.95.22s.15-.29.26-.58.18-.5.18-.5l-.48-.43.56.17a4.49,4.49,0,0,1,.33-.47c.14-.17.35-.49.35-.49l-.21-.51.63.16s0-.57.33-.67.32-.33.32-.33Z"/><path class="cls-2" d="M29.66,0s.31.49.53.78,1.45,1.84,1.52,1.88a4.6,4.6,0,0,1,.4.53,6.54,6.54,0,0,0-1.49-.46,2.38,2.38,0,0,0-2,.46,2.46,2.46,0,0,0-.51,1.51,3.76,3.76,0,0,1,.7-.49l.5-.25-.16-.52.32.52.86,0h.39l.19-.51.29.6a6.08,6.08,0,0,1,.9,0c.38,0,.86,0,.86,0l.23,0,.13-.24A1.56,1.56,0,0,1,33.44,3a2,2,0,0,1,.36-.49l-.37-.48.44.29a1.23,1.23,0,0,1,.41-.46c.34-.27.59-.44.59-.44V1l.28.22L35.7,1a7.11,7.11,0,0,0,.88-.48A2.14,2.14,0,0,0,35.5.1a2.87,2.87,0,0,0-2.17.71A4.36,4.36,0,0,0,32.76,3L31.53,1.43s-.6-.63-.64-.69a3.39,3.39,0,0,0-.52-.43Z"/></g></g></svg>