<svg xmlns="http://www.w3.org/2000/svg" viewBox="0 0 96.96 38.51"><defs><style>.cls-1{fill:#5a5f7a;}</style></defs><title>Recurso 106</title><g id="Capa_2" data-name="Capa 2"><g id="Movil"><path class="cls-1" d="M90.78,31.77c-.25.07-.49.13-.73.21s-.64.27-1,.41c-.91.41-1.81.84-2.74,1.22-.33.14-.67.24-1,.35l-1,.33c-.84.27-1.67.54-2.53.75a.73.73,0,0,1-.29,0s0,0-.06,0a.07.07,0,0,1,0-.06,1.26,1.26,0,0,1,.26-.21,12.69,12.69,0,0,1,1.58-.85.7.7,0,0,1,.43,0l.5.08a.58.58,0,0,0,.29,0l.44-.13.68-.29,1-.49a.25.25,0,0,1,.33.09c.1.12.11.12.25.06a5.61,5.61,0,0,0,1.12-.64,5.38,5.38,0,0,1,.83-.5,2.4,2.4,0,0,1,.59-.13l.93-.15Z"/><path class="cls-1" d="M97,28.69a2.52,2.52,0,0,1-.42.24c-.37.1-.7.29-1.06.4a7.36,7.36,0,0,1-1.13.25l-.26,0s.08,0,.07.07,0,.06-.06.09a1.51,1.51,0,0,1-.22.11.07.07,0,0,1-.06,0l-.4-.09.26-.14a6.59,6.59,0,0,1,1-.47,2.47,2.47,0,0,1,.85-.13.2.2,0,0,0,.13,0l.28-.23a.28.28,0,0,1,.39,0s.06.09.1.09.08,0,.13-.06l.34-.17Z"/><path class="cls-1" d="M89.22,30.77c-.14.19-.29.32-.53.27s-.25,0-.38,0Z"/><path class="cls-1" d="M87.1,31.37v0s-.09.05-.07.1a.14.14,0,0,0,.13.07,1.63,1.63,0,0,1,.3.07l-.4-.06a1.09,1.09,0,0,0-.54.05,3.46,3.46,0,0,1-.7.19,2,2,0,0,1,.46-.17l.3-.07a2.1,2.1,0,0,0,.42-.15l.11,0Z"/><path class="cls-1" d="M87.1,31.38a.42.42,0,0,1,.28-.12,1.36,1.36,0,0,1-.28.11Z"/><path class="cls-1" d="M83.82,33.18a10.92,10.92,0,0,0-1.14-.08,1.45,1.45,0,0,0-.36,0l-1,.23c-1,.23-2,.44-3,.62-.64.12-1.27.22-1.91.32a.64.64,0,0,0-.45.16.37.37,0,0,1-.39.08,1.46,1.46,0,0,0-.46-.06c-.38.05-.76.11-1.14.14l-.89.08c-.37,0-.74.07-1.11.12s-.71.16-1.07.18a1,1,0,0,1-.53-.06.44.44,0,0,0-.22,0l-.26,0-.6,0H68.11a19.66,19.66,0,0,1-2-.06c-.44,0-.89,0-1.33-.09-.66-.07-1.32-.15-2-.26s-1.54-.26-2.3-.4-1.51-.29-2.26-.45c-1.32-.28-2.64-.58-3.95-.91l-2.71-.64c-.75-.18-1.5-.34-2.26-.5s-1.46-.3-2.19-.42c-1.09-.19-2.19-.34-3.28-.5-.8-.11-1.61-.21-2.41-.3l-3-.31-1.9-.18-1.77-.16-1.51-.13c-.46,0-.92-.06-1.37-.07s-1,0-1.45,0c-1,0-1.91,0-2.86,0l-.9,0c-.43,0-.86,0-1.28.09l-1.27.1-1.47.14c-.62.07-1.24.13-1.86.21l-2,.25-2,.27L15,30.9l-2.22.3a19.21,19.21,0,0,0-2.58.58A32.75,32.75,0,0,0,6.88,33c-.92.38-1.83.8-2.72,1.24q-.72.34-1.41.72a3.2,3.2,0,0,0-.51.29,4.85,4.85,0,0,0-.91.9,2.07,2.07,0,0,0-.46.94.89.89,0,0,0,.26.86,2.18,2.18,0,0,0,.57.38,2.6,2.6,0,0,0,1.1.21,6,6,0,0,0,2.09-.3c.69-.23,1.35-.52,2-.76a18.73,18.73,0,0,1,1.94-.57l1-.21-.23,0c-.05,0-.11,0-.13-.07s0-.09.06-.12a1.71,1.71,0,0,1,.42-.28,10,10,0,0,1,2.55-.84,8.66,8.66,0,0,1,1.53-.2,6.14,6.14,0,0,1,1.05,0,13.42,13.42,0,0,0,2,.12c.49,0,1,0,1.47-.07.71-.07,1.42-.16,2.12-.28l3-.51c.81-.14,1.61-.27,2.42-.34.6-.06,1.19-.13,1.78-.16a14.77,14.77,0,0,1,1.76,0l1.34,0h3.11l.94.09,1.27.09,1.24.09,1,.07,1.11.07,1,.06,1.29.09,1.31.1c.56,0,1.13.09,1.69.15s1.18.12,1.77.19,1.31.18,2,.28c.84.13,1.68.28,2.52.46l2.78.58,2.54.54a17.36,17.36,0,0,0,2.5.4c.61,0,1.22.07,1.83.07h1.73l1,0c.21,0,.43,0,.64,0l.92.07,1,.07c.4,0,.8.07,1.2.08s.68,0,1,0,.85-.06,1.27-.11a24,24,0,0,0,2.66-.51l.25-.06h-.06L71.43,37c-.58.1-1.17.19-1.75.27s-1.17.13-1.75.16a.65.65,0,0,1-.24,0s0,0,0,0,0,0,0,0l.14-.08a9.1,9.1,0,0,1,1.76-.59.75.75,0,0,1,.47,0l.21.07a1.38,1.38,0,0,0,.75.1c.23,0,.46-.07.68-.12.47-.11.91-.27,1.36-.41s.31-.1.51.15a.13.13,0,0,0,.13.05,5.18,5.18,0,0,0,.56-.17c.4-.15.78-.37,1.16-.55a2.22,2.22,0,0,1,.67-.23c.32,0,.65,0,1,0a7.88,7.88,0,0,0,1-.05,2.88,2.88,0,0,0,.65-.13l1.77-.7,3.08-1.19s0,0,0,0,0,0,0,0l.26-.08.2-.06ZM64.69,35a2.23,2.23,0,0,1,1.58.26A2.78,2.78,0,0,1,64.69,35Zm8.78-.2.35-.09s-.06.1,0,.14Zm9.91-1.33a7.73,7.73,0,0,1-1.58.3,4.7,4.7,0,0,1-.75,0H81s0,0,.05,0,.08,0,.08.06,0,.06-.07.08a1.22,1.22,0,0,1-.24.1h0l-.36-.14.68-.26a4,4,0,0,1,1-.22,2.51,2.51,0,0,1,.55,0,.21.21,0,0,0,.12,0l.33-.19a.26.26,0,0,1,.31,0l0,0C83.54,33.38,83.54,33.39,83.38,33.44Z"/><path class="cls-1" d="M10.07,25.35l.49,1.19-.34.28a5.49,5.49,0,0,1-.47.31c-.18.06-.4.15-.66.26l-.87.39a6.55,6.55,0,0,1-.62.35.94.94,0,0,1-.33.12,2.24,2.24,0,0,0-.61.14c-.3.09-.69.24-1.17.43l-.82.29c-.29.1-.59.18-.9.26L3,29.2l-.49.22H2l-.48,0a1.44,1.44,0,0,1-.56-.11A.27.27,0,0,1,.74,29l.08-.49-.08-.09a1,1,0,0,1-.59-.12Q0,28.22,0,27.78c0-.13,0-.34,0-.65s0-.69.06-1.17a1.13,1.13,0,0,1,.08-.28.81.81,0,0,0,.09-.29A.63.63,0,0,1,.16,25c0-.34,0-.75.11-1.25s.12-1.07.21-1.74a13.67,13.67,0,0,0,.26-1.38c0-.38,0-.76-.05-1.16.32-1.43.64-2.87,1-4.32A2.24,2.24,0,0,1,2,14.45a4.47,4.47,0,0,1,.51-.68.69.69,0,0,0,.17-.14c0-.08.1-.17.17-.29L3.05,13l.26-.16.47-.28.3-.25.39-.34a8.55,8.55,0,0,0,.91-.62,2.06,2.06,0,0,1,1-.41l.6,0,.57,0a2.8,2.8,0,0,1,.45-.06l.23-.06.17,0a1,1,0,0,1,.22,0l.36.06h.56a1.52,1.52,0,0,1,.77.45,1.09,1.09,0,0,1,.24.71,4,4,0,0,1-.17,1.33.58.58,0,0,1-.55.43,1.11,1.11,0,0,1-.65-.29,3.92,3.92,0,0,0-2-.29L6,13.35a.53.53,0,0,1-.15.15l-.15.08-.45-.17a1.19,1.19,0,0,0-.47.43,5.65,5.65,0,0,0-.54,1,.86.86,0,0,0-.1.32,3,3,0,0,0,0,.45c-.16.63-.31,1.23-.47,1.8s-.26,1.09-.35,1.41-.15.52-.17.59L3,19.61a1,1,0,0,0,0,.24.37.37,0,0,0,.07.25.23.23,0,0,0,.19.1c.08,0,.27-.15.56-.43a1.74,1.74,0,0,1,.67-.48L5,19.12a5.24,5.24,0,0,0,.58-.22,3.79,3.79,0,0,1,.61-.1c.33-.05.8-.1,1.39-.16l.37.11.68-.13.36.16a1.57,1.57,0,0,1,.24.32,2.6,2.6,0,0,1,.2.41,3.27,3.27,0,0,1-.16,1.18c-.12.26-.28.4-.51.4l-.71-.29L6.35,21l-1.75.16a3.65,3.65,0,0,0-1.67.71,1.81,1.81,0,0,0-.65,1.3,4.67,4.67,0,0,1-.09.51L2,24.53l.09.39q-.12.55-.18,1a5.85,5.85,0,0,0-.07.88.34.34,0,0,0,0,.19s.06.05.09,0L3,27a3.29,3.29,0,0,1,.53,0l.68.05L5,27a3,3,0,0,0,.56-.2,2.08,2.08,0,0,1,.79-.18,3.82,3.82,0,0,0,.75-.08,4.12,4.12,0,0,0,.73-.21l.7-.26.69-.27a1.63,1.63,0,0,0,.34-.14Z"/><path class="cls-1" d="M10,25.35a1.86,1.86,0,0,1,.14-.2,3.07,3.07,0,0,1,.2-.27l.34-.3.46-.45.57-.64.82-.93c.13-.14.31-.33.51-.56l.74-.82a2.42,2.42,0,0,1,.78-.64,2.06,2.06,0,0,1,.88-.2.8.8,0,0,1,.69.29,1.44,1.44,0,0,1,.22.85,6.26,6.26,0,0,1-.22,1.14q-.23.84-.69,2.22l-.22.49a1.3,1.3,0,0,0-.1.3,1,1,0,0,0,0,.2.35.35,0,0,0,.09.19l.12-.1.14-.16a1.77,1.77,0,0,1,.32-.41c.14-.14.31-.3.51-.47a2.38,2.38,0,0,1,.3-.43,3.16,3.16,0,0,1,.42-.4,1,1,0,0,0,.14-.17,2,2,0,0,1,.2-.24,3.7,3.7,0,0,1,.4-.35c.16-.12.34-.25.54-.38s.45-.21.63-.28a1.42,1.42,0,0,1,.49-.1,1.33,1.33,0,0,1,.71.19,1.54,1.54,0,0,1,.53.61c.17.53.34,1,.49,1.49a1.88,1.88,0,0,0,.32.59.53.53,0,0,0,.39.2.74.74,0,0,0,.31-.07.87.87,0,0,0,.25-.19l.52,1.19-.46.37-.45.38a2,2,0,0,1-.55.38,1.43,1.43,0,0,1-.52.11,1.29,1.29,0,0,1-1-.52,2,2,0,0,1-.26-.38c-.1-.18-.22-.42-.36-.69a4,4,0,0,1-.38-.45l-.5-.65-.12,0a2.1,2.1,0,0,0-.48.23,5.18,5.18,0,0,0-.51.4,5,5,0,0,1-.84.65.82.82,0,0,0-.35.3,5.5,5.5,0,0,1-.62.8c-.29.33-.66.72-1.1,1.17l-.34.33-.33.31a.93.93,0,0,1-.38.2,1.8,1.8,0,0,1-.48.06c-.34,0-.53-.12-.56-.35s-.06-.48-.08-.72c.13-.36.27-.82.44-1.36l.56-1.9a.49.49,0,0,1,.05-.18c0-.07.06-.17.11-.29a3,3,0,0,0,.09-.29,1.8,1.8,0,0,0,0-.22.18.18,0,0,0-.06-.14.41.41,0,0,0-.21-.05.6.6,0,0,0-.34.16,2.5,2.5,0,0,0-.51.49l-.59.61a2.15,2.15,0,0,1-.29.26,2.61,2.61,0,0,0-.31.25l-.39.38-.08.15a1.36,1.36,0,0,1-.17.24,2.47,2.47,0,0,0-.18-.48C10.24,25.87,10.13,25.63,10,25.35Z"/><path class="cls-1" d="M22.37,25.35c.16-.17.41-.4.74-.71l1.26-1.13a4.34,4.34,0,0,0,.39-.43l.89-1,.67-.7c.25-.29.55-.62.88-1a2.82,2.82,0,0,1,.64-.68,1.06,1.06,0,0,1,.61-.23.71.71,0,0,1,.55.19.73.73,0,0,1,.18.54,5.48,5.48,0,0,1-.07.64,5.13,5.13,0,0,0-.06.65c0,.24,0,.67-.11,1.27s-.19,1.39-.35,2.36a2.18,2.18,0,0,1-.06.3c0,.14-.07.33-.13.56a2.29,2.29,0,0,0-.1.48,2.87,2.87,0,0,0,0,.38,1,1,0,0,1,0,.16c.43-.31.79-.59,1.11-.86a8.2,8.2,0,0,0,.78-.75l.52,1.19c-.09,0-.69.58-1.81,1.6a1.22,1.22,0,0,1-.35.49,3.73,3.73,0,0,1-.71.54,6.46,6.46,0,0,0-.31.57l-.42.84c-.08.23-.16.45-.22.66s-.12.4-.17.57A6.8,6.8,0,0,1,26.25,33c-.22.47-.48,1-.79,1.65a10.41,10.41,0,0,1-1,1.69c-.29.37-.54.55-.74.54l-.5-.05a.81.81,0,0,1-.24,0,.4.4,0,0,1-.16-.27,2.09,2.09,0,0,1,0-.48,4.54,4.54,0,0,1,.06-.6c0-.28.11-.61.19-1a6.21,6.21,0,0,1,.24-.81c.1-.26.22-.52.35-.78s.23-.49.35-.72l.37-.76c.29-.34.56-.72.84-1.12s.54-.85.82-1.32c.05-.18.1-.41.16-.69s.11-.62.18-1,.14-.79.19-1.14.08-.52.11-.7a1.21,1.21,0,0,0,0-.34l-.08-.68.22-.7a.68.68,0,0,0-.13-.24.29.29,0,0,0-.19-.08.9.9,0,0,0-.47.13,1.74,1.74,0,0,0-.41.37,7,7,0,0,1-.54.63c-.22.22-.47.47-.77.73l-.89.81c-.23.21-.4.38-.51.49,0-.11-.09-.25-.16-.4s-.13-.34-.2-.55a.59.59,0,0,0-.06-.14A.45.45,0,0,0,22.37,25.35Zm8.22-12a.6.6,0,0,1,.43.13.48.48,0,0,1,.14.37,2.32,2.32,0,0,1-.11.62,7,7,0,0,1-.3.81l-.28.68a1.55,1.55,0,0,1-.6.56,1.66,1.66,0,0,1-.77.35,3.17,3.17,0,0,1-.59-.05,1,1,0,0,1-.37-.13A.64.64,0,0,1,28,16.4a2.16,2.16,0,0,1-.07-.62c0-.4.35-.9,1-1.5A2.89,2.89,0,0,1,30.59,13.39Z"/><path class="cls-1" d="M30.16,25.35a1.83,1.83,0,0,0,.19-.24c.06-.1.14-.21.22-.33l1-.69a5.8,5.8,0,0,1,.56-.56l.93-.84a1.73,1.73,0,0,1,.21-.33,4.09,4.09,0,0,1,.36-.37l.36-.31.34-.29L34.7,21c.11-.13.23-.26.35-.38a1.86,1.86,0,0,1,.43-.28,1.13,1.13,0,0,1,.48-.11,1,1,0,0,1,.43.08.22.22,0,0,1,.16.2c-.08.19-.17.39-.27.59l.08.12.89-.33a2.67,2.67,0,0,1,.42-.1,1.69,1.69,0,0,1,1.41.58,2.66,2.66,0,0,1,.48,1.74,2.76,2.76,0,0,1-.06.52,5,5,0,0,1-.16.64,3.71,3.71,0,0,1-.28.65,1.62,1.62,0,0,1-.28.38.45.45,0,0,0,.12.23.21.21,0,0,0,.16.08.47.47,0,0,0,.22-.07,2.34,2.34,0,0,0,.26-.19c.09.19.17.38.26.59s.16.4.25.6l-.45.4c-.15.13-.31.25-.47.37a2.17,2.17,0,0,1-.56.36,1.48,1.48,0,0,1-.53.11.84.84,0,0,1-.49-.14,1.05,1.05,0,0,1-.31-.4,4.79,4.79,0,0,1-.78.78,4.68,4.68,0,0,1-1,.59,6.13,6.13,0,0,1-.59.24,1.84,1.84,0,0,1-.48.08l-.26.05a1,1,0,0,1-.3.06,1.79,1.79,0,0,1-1.33-.63,1.93,1.93,0,0,1-.6-1.38,3.41,3.41,0,0,1,.14-.82,3.82,3.82,0,0,0,.15-.6.2.2,0,0,0-.06-.15A.23.23,0,0,0,32,25.4a.82.82,0,0,0-.32.19l-.69.56a.66.66,0,0,0-.09.15,2.22,2.22,0,0,1-.17.24q-.11-.3-.24-.6A5.34,5.34,0,0,0,30.16,25.35ZM36.39,23a.42.42,0,0,0-.19.13,2.79,2.79,0,0,0-.24.31c-.12.2-.26.41-.42.65a.93.93,0,0,1-.3.23,1.35,1.35,0,0,1-.37.13c-.09,0-.18.09-.27.25a3.4,3.4,0,0,0-.29.69,6.63,6.63,0,0,0-.2.69,1.91,1.91,0,0,0-.07.48.73.73,0,0,0,.18.54.77.77,0,0,0,.56.18,1.92,1.92,0,0,0,1.09-.33,3.33,3.33,0,0,0,.94-1l.39-.46a.56.56,0,0,0,.17-.26,3.84,3.84,0,0,0,.13-.43l.23-.74a5,5,0,0,0-.22-.61.56.56,0,0,0-.21-.28.87.87,0,0,0-.28-.08A4.64,4.64,0,0,0,36.39,23Z"/><path class="cls-1" d="M39.52,25.35a6.35,6.35,0,0,1,.91-.75,9.73,9.73,0,0,0,.91-.73c.13-.15.3-.34.51-.56l.74-.78a2.34,2.34,0,0,1,.51-.37,1.09,1.09,0,0,1,.49-.13.65.65,0,0,1,.48.16.61.61,0,0,1,.18.49,5.73,5.73,0,0,1-.39,1.63A5.77,5.77,0,0,0,43.47,26a.22.22,0,0,0,.06.18.17.17,0,0,0,.14.05h.06c.17-.1.36-.24.58-.39s.47-.36.74-.59.5-.48.84-.82.72-.72,1.17-1.16c.17-.14.37-.32.59-.53s.46-.48.74-.78a1,1,0,0,1,.47-.36,1.87,1.87,0,0,1,.75-.13.68.68,0,0,1,.44.11.37.37,0,0,1,.15.33.47.47,0,0,1,0,.17l0,.16c-.06.26-.15.58-.27.95s-.27.82-.44,1.33c-.15.32-.3.7-.46,1.15s-.33.93-.51,1.47l.09.11a3.94,3.94,0,0,0,.81-.61c.35-.33.8-.76,1.34-1.3l.52,1.19-.25.25a2.79,2.79,0,0,1-.39.32,18.43,18.43,0,0,0-2.38,1.95A10,10,0,0,0,46.64,31c-.58.95-1.06,1.73-1.44,2.32s-.66,1-.84,1.26a8.28,8.28,0,0,1-1.69,1.74,2.73,2.73,0,0,1-1.57.57.59.59,0,0,1-.41-.11.45.45,0,0,1-.13-.36,1.16,1.16,0,0,1,.06-.33,1.61,1.61,0,0,1,.24-.41c.16-.24.31-.48.45-.73l.39-.33a1.26,1.26,0,0,0,0-.24l.14-.15.23-.21a4.43,4.43,0,0,1,.48-.77q.4-.54,1.11-1.38l1-1.1.75-.83c0-.07.07-.15.11-.24s.07-.19.1-.29.24-.49.37-.81.29-.7.48-1.13a5.65,5.65,0,0,0,.22-.86c.07-.32.12-.68.17-1.05a.49.49,0,0,1,0-.14.69.69,0,0,0-.06-.24,2.93,2.93,0,0,0-.51.35c-.18.15-.39.34-.6.54a6.06,6.06,0,0,1-.87.93,3.87,3.87,0,0,1-.87.56,1.9,1.9,0,0,1-.73.82,1.93,1.93,0,0,1-1,.27.93.93,0,0,1-.64-.2.8.8,0,0,1-.22-.62.72.72,0,0,1,0-.19c0-.08,0-.17,0-.27L41.27,27c0-.14.06-.31.09-.49a2.09,2.09,0,0,0-.06-.58c0-.13-.1-.19-.19-.19l0,0-.4.31-.62.51c0-.11-.1-.25-.17-.4s-.13-.34-.2-.55a.59.59,0,0,0-.06-.14A.45.45,0,0,0,39.52,25.35Z"/><path class="cls-1" d="M67.27,26.54c-.26.2-.58.42-1,.68s-.83.55-1.35.86-.88.5-1.24.69a7,7,0,0,1-.9.43,4.2,4.2,0,0,1-1.12.36,7,7,0,0,1-1.22.11,1.77,1.77,0,0,1-.43-.06l-.51-.13L59,29.32a3,3,0,0,0-.39-.08l-.16-.15L58,29a1.19,1.19,0,0,1-.59-.25,5.07,5.07,0,0,1-.75-.65,5.53,5.53,0,0,1-.62-.74,2.91,2.91,0,0,1-.35-.63l-.35-1.11c-.12-.38-.21-.69-.27-.92a1.48,1.48,0,0,1-.07-.45l.14-.59c-.07-.2-.13-.36-.16-.49a1.11,1.11,0,0,1-.06-.3q0-.11.06-.63c0-.35.11-.85.18-1.48.06-.12.13-.26.2-.44a4.94,4.94,0,0,0,.19-.58l0-.28a.79.79,0,0,1,.05-.24,3.21,3.21,0,0,1,.12-.31l.6-1.28c.2-.43.39-.85.59-1.25a6,6,0,0,1,.67-1,12.18,12.18,0,0,1,.94-1l.28-.34c.11-.14.25-.29.4-.45a4.07,4.07,0,0,0,.54-.4c.21-.18.46-.4.76-.68l.31-.14.44-.22a1.31,1.31,0,0,0,.16-.13,1.55,1.55,0,0,1,.23-.19,3.53,3.53,0,0,1,1-.39,5.23,5.23,0,0,1,1.17-.26,5.82,5.82,0,0,1,1,.08,1.82,1.82,0,0,1,.66.27l.41.08a1.07,1.07,0,0,1,.76.78,5.79,5.79,0,0,1,.25,2c0,.39,0,.71,0,.95a3.27,3.27,0,0,1,0,.48c0,.26-.11.59-.18,1s-.14.85-.25,1.37a3.07,3.07,0,0,1-.17.68L65.86,20a11.69,11.69,0,0,1-.47,1.16c-.13.26-.23.4-.32.43L64,21.9a1.28,1.28,0,0,1-.4,0,.16.16,0,0,1-.12-.15,1.58,1.58,0,0,1,.05-.29,1.23,1.23,0,0,0,0-.27c0-.32-.05-.66-.07-1a4.54,4.54,0,0,1,.1-.72c.07-.35.17-.8.31-1.35s.27-1.09.39-1.44a2.62,2.62,0,0,1,.27-.65,2.41,2.41,0,0,0,.54-.67,1.1,1.1,0,0,0,0-1.21,1.09,1.09,0,0,0-.52-.41l-.68-.15c-.23-.05-.46-.1-.68-.17a3,3,0,0,1-.49.15l-.36.09a3.56,3.56,0,0,0-1.67.81,7.32,7.32,0,0,0-1.52,1.82,12,12,0,0,0-1,2,9.84,9.84,0,0,0-.49,2c0,.21-.08.47-.13.77s-.12.67-.22,1.09c.08.25.15.49.21.71l-.13,1.18a.72.72,0,0,0,.12.26c.07.13.19.33.36.59a3.6,3.6,0,0,1,.26.52,3.11,3.11,0,0,1,.18.67.58.58,0,0,0,.1.19.52.52,0,0,0,.16.17,4.44,4.44,0,0,0,.37.3,3.94,3.94,0,0,0,1.19.9,3.06,3.06,0,0,0,1.34.3l.48-.06c.28,0,.67-.11,1.16-.21a2.1,2.1,0,0,1,.34-.18l.52-.19a1.49,1.49,0,0,1,.51-.37,1.37,1.37,0,0,1,.48-.11l.16-.22a3.06,3.06,0,0,1,.26-.29,3.09,3.09,0,0,0,.71-.4,5.67,5.67,0,0,0,.62-.59C67.09,26.1,67.27,26.49,67.27,26.54Z"/><path class="cls-1" d="M66.74,25.35l.08-.09a.28.28,0,0,0,0-.13,3.9,3.9,0,0,0,.5-.5q.29-.31.63-.75l.59-.77c.2-.26.42-.52.65-.78s.38-.53.56-.81.39-.55.59-.82.62-.28.81-.35a1.38,1.38,0,0,1,.38-.1.38.38,0,0,1,.3.12.53.53,0,0,1,.11.36,1.51,1.51,0,0,1,0,.22c0,.09-.06.19-.09.31s-.13.35-.21.53-.15.6-.25.9-.18.6-.27.9-.15.71-.2,1a5.3,5.3,0,0,0-.07.85,5.75,5.75,0,0,0,.07,1.08c0,.23.12.33.2.31l.33-.19.45-.25c.15-.17.33-.37.52-.61s.43-.53.71-.85.31-.48.48-.72l.21-.24c.08-.1.16-.19.23-.29a2.54,2.54,0,0,1,.55-.92.92.92,0,0,1,.68-.31,1.3,1.3,0,0,1,.53.09.47.47,0,0,1,.28.25,1.1,1.1,0,0,1,.07.31c0,.15,0,.34,0,.58a2.08,2.08,0,0,0,.06.42,2,2,0,0,1,.06.4,1.27,1.27,0,0,0,.17.72.58.58,0,0,0,.52.24,1.32,1.32,0,0,0,.24,0l.29-.09L78,26.54c-.51.31-.94.54-1.27.7a1.94,1.94,0,0,1-.75.24,1.66,1.66,0,0,1-1.06-.33,2,2,0,0,1-.61-1,.77.77,0,0,0-.11-.31,1.41,1.41,0,0,0-.21-.31,3,3,0,0,0-.26.31l-.32.36c-.23.29-.47.56-.7.84l-.71.81a3.27,3.27,0,0,1-.91.77,2,2,0,0,1-.87.23,1.28,1.28,0,0,1-.95-.35,1.77,1.77,0,0,1-.47-1.06c-.08-.44-.13-.79-.15-1a1.54,1.54,0,0,1,0-.46,4.38,4.38,0,0,0-.07-.57c0-.13-.07-.19-.13-.19l-.08,0-.74.76a2,2,0,0,1-.13.23,3.6,3.6,0,0,1-.25.33,2.47,2.47,0,0,0-.18-.48C67,25.87,66.87,25.63,66.74,25.35Z"/><path class="cls-1" d="M77.51,25.35l.37-.44c.15-.18.33-.38.56-.62q.12-.37.24-.9c.07-.36.13-.78.18-1.27s.13-.92.21-1.28.14-.67.2-.89c.38-1.22.69-2.16.9-2.83s.34-1.06.38-1.18a16.93,16.93,0,0,1,.9-2.11,13.71,13.71,0,0,1,1-1.61,3.48,3.48,0,0,0,.24-.28l.3-.31.9-.43a2.64,2.64,0,0,1,.47-.17,1.89,1.89,0,0,1,.47-.06.61.61,0,0,1,.56.34,2.14,2.14,0,0,1,.19,1,4.33,4.33,0,0,1-.12.95,9.74,9.74,0,0,1-.32,1.15c-.21.58-.37,1.05-.48,1.4s-.18.57-.21.65a2.85,2.85,0,0,1-.24.69c-.13.28-.3.61-.52,1L83,19.37c-.15.27-.24.44-.26.49l-.19.19-.2.2v.29a.6.6,0,0,1-.13.22c-.15.29-.34.64-.59,1.07s-.55.9-.91,1.45a4.91,4.91,0,0,0-.47.75,1.34,1.34,0,0,0-.15.55v1.14c0,.23.09.45.14.67s.1.43.16.64a1.26,1.26,0,0,0,.24.63.54.54,0,0,0,.42.21,1.41,1.41,0,0,0,.86-.25,1.56,1.56,0,0,0,.51-.77,1.79,1.79,0,0,1-.54-.33.6.6,0,0,1-.19-.4,1.17,1.17,0,0,0,.11-.28c0-.1.07-.21.1-.32a.59.59,0,0,1,0-.19,1.07,1.07,0,0,0,0-.23,9.42,9.42,0,0,1,1.09-1.64,1.35,1.35,0,0,1,.88-.55,1.53,1.53,0,0,1,.3,0l.31,0a1.13,1.13,0,0,0,.24-.05,1,1,0,0,1,.25,0,.34.34,0,0,1,.31.15.76.76,0,0,1,.09.4,2.77,2.77,0,0,1-.32,1.21,3.69,3.69,0,0,0-.33.74c0,.05,0,.1.11.16a.71.71,0,0,0,.16-.07l.16-.13a2.69,2.69,0,0,0,.16.39l.24.5a.89.89,0,0,1,.09.16.35.35,0,0,1,0,.14,8,8,0,0,1-1,.85,1.59,1.59,0,0,1-.7.33H83.9l-.31,0c-.12.15-.27.31-.43.5s-.36.42-.57.68l-.32.24c-.13.1-.28.22-.44.37a2.76,2.76,0,0,1-.75.55,1.78,1.78,0,0,1-.74.17,1.24,1.24,0,0,1-.33,0,1.38,1.38,0,0,1-.37-.18,2.21,2.21,0,0,1-.33-.21c-.12-.09-.24-.2-.38-.32A11.32,11.32,0,0,1,78.55,28a8.41,8.41,0,0,1-.11-1.28.9.9,0,0,0,0-.18.23.23,0,0,0-.06-.12l-.12,0-.09,0-.13.13c-.07-.19-.14-.39-.23-.58S77.61,25.55,77.51,25.35Zm6-10.53a.36.36,0,0,0,0-.11s0-.05-.07-.08-.11,0-.18.17a2.48,2.48,0,0,0-.2.54,2.24,2.24,0,0,1-.23.61c-.12.23-.28.51-.47.83s-.32.58-.48.92-.31.71-.46,1.11A9,9,0,0,0,81,20a3.21,3.21,0,0,0-.14.85l0,.12a1.38,1.38,0,0,0,.35-.5c.16-.31.36-.74.62-1.31s.42-.89.54-1.18a3.65,3.65,0,0,0,.21-.57c.07-.23.15-.5.25-.81s.2-.66.32-1l.22-.38a.59.59,0,0,0,.12-.2A.51.51,0,0,0,83.5,14.82Z"/><path class="cls-1" d="M85.66,24.78,86.84,24l.15-.17a3,3,0,0,0,.21-.32,1,1,0,0,1,.24-.29,2.18,2.18,0,0,1,.34-.2,3.74,3.74,0,0,1,.3-.33c.13-.13.29-.28.49-.45a3.89,3.89,0,0,0,.37-.23,4.58,4.58,0,0,0,.47-.39A14.38,14.38,0,0,1,91.48,20,3,3,0,0,1,93,19.39a.71.71,0,0,1,.5.15.48.48,0,0,1,.16.4,1.21,1.21,0,0,1-.09.48.91.91,0,0,1-.31.34l-.7.52a4.88,4.88,0,0,1-.5.58,6.22,6.22,0,0,1-.7.6,3.72,3.72,0,0,0-.22.3l-.25.23c-.12.11-.28.24-.47.39a3.11,3.11,0,0,1-.57.74c-.29.3-.67.66-1.16,1.08a5,5,0,0,0-.32.42c-.16.21-.36.5-.61.85l.09.12a2.15,2.15,0,0,0,.6-.31,7.35,7.35,0,0,0,.68-.58l.72-.66a3.76,3.76,0,0,1,.4-.33l.18-.1.21-.13a5.11,5.11,0,0,1,1.11-1.06,1.81,1.81,0,0,1,1-.34.45.45,0,0,1,.41.22,1.26,1.26,0,0,1,.17.64c0,.43,0,.84,0,1.24a1.16,1.16,0,0,0,.23.74.74.74,0,0,0,.63.33.46.46,0,0,0,.22-.06,1.13,1.13,0,0,0,.23-.17l.17-.22.18-.21L95,25.5a1.25,1.25,0,0,0,.19-.15c.12.26.22.48.3.68s.14.36.19.51l-.59.56a8.11,8.11,0,0,1-.62.55,3,3,0,0,1-.75.45,1.86,1.86,0,0,1-.72.15,1.72,1.72,0,0,1-1.3-.48,2.41,2.41,0,0,1-.53-1.45,1,1,0,0,0,0-.24.75.75,0,0,0-.13-.25L90.9,26l-.18.19-.42.32-.59.47L89,27.7c-.21.2-.36.34-.44.43a6.24,6.24,0,0,1-.6.44c-.23.15-.49.3-.77.45l-.47.23a.71.71,0,0,1-.28.08,1.23,1.23,0,0,1-.92-.3,1.29,1.29,0,0,1-.3-.94,1.59,1.59,0,0,1,.15-.67,2.4,2.4,0,0,1,.44-.61,1.57,1.57,0,0,0,0-.27.35.35,0,0,0,0-.14.89.89,0,0,0-.09-.16l-.17-.41q-.1-.22-.21-.48a1.94,1.94,0,0,0,.14-.2C85.5,25.05,85.57,24.92,85.66,24.78Z"/><path class="cls-1" d="M48.4,6.7s-.38,1,0,1.06a.29.29,0,0,1,.24.41,2.28,2.28,0,0,0,.36.55,2.5,2.5,0,0,1,.59.9,5.06,5.06,0,0,1,.46,1.25,3.06,3.06,0,0,0,.44,1.2c.32.64.67,1.27.59,1.59a5.55,5.55,0,0,0,.36,2,6.52,6.52,0,0,1,.2,2v2.59a13.32,13.32,0,0,1,0,1.56c0,.58-.72,1.64-.74,2a8.44,8.44,0,0,1-1.11,1.81l-.68.85-.88,1.06.33.69L50,27s.89-.4,1.19-.5a5.63,5.63,0,0,0,1.22-2.18,7,7,0,0,0,.57-2.1c0-.64.47-1.28.47-1.81a9.38,9.38,0,0,0,0-2.12,17.6,17.6,0,0,1-.19-1.86c-.11-.8-.3-1.17-.3-1.65s-.25-.85-.25-1.22a5.19,5.19,0,0,0-.53-1.43A8.93,8.93,0,0,0,51.8,11c-.22-.34-.36-.71-.68-1.33-.39-.79-.28-.39-.65-1a6.66,6.66,0,0,0-.65-1C49.56,7.28,49,6.7,49,6.7Z"/><path class="cls-1" d="M49.19,6A5.46,5.46,0,0,1,51.5,3.9a4.05,4.05,0,0,1,3.85.24,8.94,8.94,0,0,1,2.11,2,5.16,5.16,0,0,1,.6,1.78c-.06,0-.16.3-.26.24s-.39-.67-.62-.74-.6-.62-.6-.62V5.94l-.2.76-.73-.35A5,5,0,0,1,55,5.18l.29,1.09a4.27,4.27,0,0,0-.94-.42,7.12,7.12,0,0,1-.87-.11L53.2,4.62l0,1.23h-1.3l-.32-.91,0,1.07L50,6a.92.92,0,0,1-.38.06A.73.73,0,0,1,49.19,6Z"/><path class="cls-1" d="M47.7,6.61a6.65,6.65,0,0,0-3.33,1.14,4.37,4.37,0,0,0-1.73,4.12,7.31,7.31,0,0,0,1.85,3.27s-.06-1.72,0-2.25.06-.7.06-.7l-1.33-.6,1.37.32a9,9,0,0,0,.38-.84c.16-.41.26-.73.26-.73l-.7-.62.82.24s.28-.44.48-.68.51-.72.51-.72L46,7.83l.91.24s0-.84.48-1,.48-.48.48-.48Z"/><path class="cls-1" d="M43.08,0s.46.72.78,1.14S46,3.8,46.07,3.86a6.82,6.82,0,0,1,.57.78A9.72,9.72,0,0,0,44.47,4a3.47,3.47,0,0,0-2.89.68,3.59,3.59,0,0,0-.73,2.19,5.63,5.63,0,0,1,1-.72l.72-.35L42.36,5l.46.76s.7,0,1.25,0h.56L44.91,5l.42.87a8.6,8.6,0,0,1,1.31,0,12.15,12.15,0,0,0,1.26.07l.33,0,.19-.34a2.31,2.31,0,0,1,.16-1.2,2.82,2.82,0,0,1,.51-.72L48.56,3l.63.43a1.88,1.88,0,0,1,.6-.67c.5-.4.86-.64.86-.64V1.45l.41.33.8-.29A9.48,9.48,0,0,0,53.14.8,3.15,3.15,0,0,0,51.56.14a4.16,4.16,0,0,0-3.14,1c-.8.87-.84,3.2-.84,3.2L45.8,2.08s-.86-.91-.92-1a6,6,0,0,0-.76-.63Z"/></g></g></svg>