<svg xmlns="http://www.w3.org/2000/svg" viewBox="0 0 14 23.18"><defs><style>.cls-1{fill:#f3ca30;}.cls-2{font-size:10.67px;font-family:Montserrat-Bold, Montserrat;font-weight:700;}.cls-2,.cls-3{fill:#fff;}.cls-3{fill-rule:evenodd;}</style></defs><title>Recurso 92</title><g id="Capa_2" data-name="Capa 2"><g id="Movil"><rect class="cls-1" y="6.64" width="14" height="16.38" rx="1.98"/><text class="cls-2" transform="translate(3.82 20.35)">5</text><path class="cls-3" d="M10.16,11.17a1,1,0,0,1-.34-.09L7,9.46,4.18,11.08a1,1,0,0,1-.34.09.68.68,0,0,1-.54-.27.67.67,0,0,1-.13-.58l.74-3-2.45-2a.69.69,0,0,1,.38-1.22L5.1,3.81,6.37.94a.69.69,0,0,1,1.26,0L8.9,3.81l3.26.26a.67.67,0,0,1,.6.48.69.69,0,0,1-.22.74l-2.45,2,.74,3a.67.67,0,0,1-.13.58A.68.68,0,0,1,10.16,11.17Z"/><path class="cls-1" d="M7,1.07a.15.15,0,0,1,.14.09L8.51,4.23a.14.14,0,0,0,.12.09l3.49.28a.16.16,0,0,1,.08.28L9.57,7.05a.14.14,0,0,0-.05.16l.79,3.23a.15.15,0,0,1-.15.19.13.13,0,0,1-.08,0l-3-1.73L7,8.86l-.08,0-3,1.73a.1.1,0,0,1-.07,0,.15.15,0,0,1-.15-.19l.79-3.23a.18.18,0,0,0-.05-.16L1.8,4.88a.16.16,0,0,1,.08-.28l3.48-.28a.14.14,0,0,0,.13-.09L6.86,1.16A.15.15,0,0,1,7,1.07M7,0A1.23,1.23,0,0,0,5.88.72L4.74,3.3l-2.95.24A1.22,1.22,0,0,0,1.12,5.7L3.31,7.51l-.66,2.68a1.18,1.18,0,0,0,.23,1,1.22,1.22,0,0,0,1.57.31L7,10.07l2.55,1.47a1.23,1.23,0,0,0,1.8-1.35l-.66-2.68L12.88,5.7a1.22,1.22,0,0,0-.68-2.16L9.26,3.3,8.11.72A1.21,1.21,0,0,0,7,0Z"/></g></g></svg>