<svg xmlns="http://www.w3.org/2000/svg" viewBox="0 0 20.54 16.7"><defs><style>.cls-1{fill:#5a5f7a;}</style></defs><title>Recurso 103</title><g id="Capa_2" data-name="Capa 2"><g id="Movil"><path class="cls-1" d="M20.54,2a8.5,8.5,0,0,1-2.42.66A4.27,4.27,0,0,0,20,.31a8.6,8.6,0,0,1-2.68,1A4.22,4.22,0,0,0,10,4.22a4.35,4.35,0,0,0,.11,1A12,12,0,0,1,1.43.77,4.23,4.23,0,0,0,2.73,6.4,4.14,4.14,0,0,1,.82,5.87v0a4.23,4.23,0,0,0,3.39,4.14,4.56,4.56,0,0,1-1.11.14,4.18,4.18,0,0,1-.8-.07,4.25,4.25,0,0,0,3.94,2.93A8.45,8.45,0,0,1,1,14.86a8.31,8.31,0,0,1-1-.06,11.91,11.91,0,0,0,6.46,1.9,11.92,11.92,0,0,0,12-12c0-.18,0-.36,0-.54A8.7,8.7,0,0,0,20.54,2Z"/></g></g></svg>